<svg width="20" height="20" viewBox="0 0 20 20" fill="none" xmlns="http://www.w3.org/2000/svg">
<path fill-rule="evenodd" clip-rule="evenodd" d="M3 0C1.34315 0 0 1.34315 0 3V17C0 18.6569 1.34315 20 3 20H17C18.6569 20 20 18.6569 20 17V3C20 1.34315 18.6569 0 17 0H3ZM17.7659 6.53727C17.6301 6.93335 17.4598 7.43007 16.3044 9.00587C16.0201 9.39311 15.6498 10.0851 15.5254 10.4169C15.3733 10.7979 15.5203 11.1128 15.6696 11.312C15.792 11.4692 15.9711 11.6602 16.1763 11.8789C16.6619 12.3965 17.2932 13.0695 17.6631 13.8175L18 14.5H15.6375C14.7075 14.5 14.3104 14.0782 13.7341 13.3629C13.1348 12.6168 12.8722 12.3502 11.9634 12.3502C11.3483 12.3502 11.0015 13.3526 10.9517 14.0491L10.9187 14.5L10.4578 14.4866C6.91565 14.2855 4.32678 11.8677 2.25684 6.64746L2 6H4.80701C4.81116 6.00793 4.82591 6.04469 4.85027 6.1054C5.11649 6.7689 6.53025 10.2924 7.80139 10.2924C8.66687 10.2924 8.71436 8.13828 8.59375 7.25299C8.53077 6.80711 8.4368 6.6938 8.31083 6.54188C8.22316 6.43616 8.11999 6.31174 8.00098 6.04353L8.73657 6.01894C9.55884 5.98057 10.2931 6.05362 10.6978 6.10527C10.894 6.13023 11.0576 6.2735 11.0908 6.46989C11.1135 6.6043 11.1216 6.87656 11.0743 7.65462C11.0242 8.49405 10.9161 10.4319 11.7301 10.2432C12.5568 10.0518 13.9236 8.17837 14.533 6.92981C14.6018 6.78864 14.8273 6 14.8273 6H18C17.877 6.21316 17.8247 6.36578 17.7659 6.53727Z" fill="white"/>
</svg>
