<svg width="150" height="40" viewBox="0 0 150 40" fill="none" xmlns="http://www.w3.org/2000/svg">
<path fill-rule="evenodd" clip-rule="evenodd" d="M2.61605 0H26.6751C28.1199 0 29.2912 1.15959 29.2912 2.59001V26.4816C29.2912 27.912 28.1199 29.0716 26.6751 29.0716H2.61605C1.17125 29.0716 0 27.912 0 26.4816V2.59001C0 1.15959 1.17125 0 2.61605 0ZM6.29921 23.4951C5.93801 23.4951 5.6452 23.2052 5.6452 22.8476V5.64253C5.6452 5.28492 5.93801 4.99503 6.29921 4.99503H23.0186C23.3797 4.99503 23.6726 5.28492 23.6726 5.64253V22.8476C23.6726 23.2052 23.3797 23.4951 23.0186 23.4951H18.1488C17.7876 23.4951 17.4948 23.2052 17.4948 22.8476V10.479C17.4948 10.1214 17.202 9.83149 16.8408 9.83149H12.477C12.1158 9.83149 11.823 10.1214 11.823 10.479V22.8476C11.823 23.2052 11.5302 23.4951 11.169 23.4951H6.29921Z" fill="#2E2F53"/>
<path d="M47.5185 23.2648C47.6157 23.515 47.8584 23.68 48.1291 23.68H53.1784C53.6497 23.68 53.9663 23.2014 53.7778 22.7737L46.2 5.56862C46.096 5.33255 45.8606 5.17993 45.6005 5.17993H40.2793C40.0192 5.17993 39.7838 5.33255 39.6798 5.56862L32.1019 22.7737C31.9135 23.2014 32.2301 23.68 32.7014 23.68H37.6443C37.9149 23.68 38.1576 23.515 38.2547 23.2648L39.1839 20.8709C39.281 20.6208 39.5237 20.4557 39.7944 20.4557H45.9789C46.2496 20.4557 46.4923 20.6208 46.5894 20.8709L47.5185 23.2648ZM42.0289 15.9629C41.5697 15.9629 41.2535 15.5066 41.4186 15.0825L42.2764 12.8791C42.4916 12.3262 43.2816 12.3262 43.4969 12.8791L44.3546 15.0825C44.5198 15.5066 44.2035 15.9629 43.7444 15.9629H42.0289ZM64.8713 5.17993H56.5516C56.1904 5.17993 55.8976 5.46983 55.8976 5.82743V23.0325C55.8976 23.3901 56.1904 23.68 56.5516 23.68H61.5278C61.8891 23.68 62.1819 23.3901 62.1819 23.0325V19.7818C62.1819 19.4242 62.4747 19.1343 62.8359 19.1343H64.8713C70.0638 19.1343 73.3659 16.4386 73.3659 12.1571C73.3659 7.87568 70.0638 5.17993 64.8713 5.17993ZM64.4719 14.3242H62.8359C62.4747 14.3242 62.1819 14.0343 62.1819 13.6767V10.6375C62.1819 10.2799 62.4747 9.98997 62.8359 9.98997H64.4719C66.2025 9.98997 67.0279 10.8093 67.0279 12.1571C67.0279 13.5049 66.2025 14.3242 64.4719 14.3242ZM90.7254 5.82743C90.7254 5.46983 90.4324 5.17993 90.0714 5.17993H74.2835C73.9225 5.17993 73.6295 5.46983 73.6295 5.82743V9.36889C73.6295 9.72651 73.9225 10.0164 74.2835 10.0164H78.4345C78.7956 10.0164 79.0886 10.3063 79.0886 10.6639V23.0325C79.0886 23.3901 79.3816 23.68 79.7426 23.68H84.6124C84.9734 23.68 85.2664 23.3901 85.2664 23.0325V10.6639C85.2664 10.3063 85.5594 10.0164 85.9204 10.0164H90.0714C90.4324 10.0164 90.7254 9.72651 90.7254 9.36889V5.82743ZM105.541 5.17993C105.18 5.17993 104.887 5.46983 104.887 5.82743V11.0867C104.887 11.4443 104.594 11.7342 104.233 11.7342H99.7358C99.3747 11.7342 99.0818 11.4443 99.0818 11.0867V5.82743C99.0818 5.46983 98.7888 5.17993 98.4277 5.17993H93.4514C93.0903 5.17993 92.7973 5.46983 92.7973 5.82743V23.0325C92.7973 23.3901 93.0903 23.68 93.4514 23.68H98.4277C98.7888 23.68 99.0818 23.3901 99.0818 23.0325V17.5089C99.0818 17.1513 99.3747 16.8614 99.7358 16.8614H104.233C104.594 16.8614 104.887 17.1513 104.887 17.5089V23.0325C104.887 23.3901 105.18 23.68 105.541 23.68H110.517C110.878 23.68 111.171 23.3901 111.171 23.0325V5.82743C111.171 5.46983 110.878 5.17993 110.517 5.17993H105.541ZM121.317 18.9757C120.955 18.9757 120.663 18.6858 120.663 18.3282V17.1918C120.663 16.8341 120.955 16.5443 121.317 16.5443H127.89C128.252 16.5443 128.544 16.2544 128.544 15.8968V12.6989C128.544 12.3413 128.252 12.0514 127.89 12.0514H121.317C120.955 12.0514 120.663 11.7615 120.663 11.4039V10.5317C120.663 10.1741 120.955 9.88424 121.317 9.88424H128.983C129.344 9.88424 129.637 9.59435 129.637 9.23673V5.82743C129.637 5.46983 129.344 5.17993 128.983 5.17993H115.139C114.777 5.17993 114.485 5.46983 114.485 5.82743V23.0325C114.485 23.3901 114.777 23.68 115.139 23.68H129.329C129.69 23.68 129.983 23.3901 129.983 23.0325V19.6232C129.983 19.2656 129.69 18.9757 129.329 18.9757H121.317ZM141.506 5.17993H133.186C132.825 5.17993 132.532 5.46983 132.532 5.82743V23.0325C132.532 23.3901 132.825 23.68 133.186 23.68H138.162C138.523 23.68 138.816 23.3901 138.816 23.0325V19.7818C138.816 19.4242 139.109 19.1343 139.47 19.1343H141.506C146.698 19.1343 150 16.4386 150 12.1571C150 7.87568 146.698 5.17993 141.506 5.17993ZM141.106 14.3242H139.47C139.109 14.3242 138.816 14.0343 138.816 13.6767V10.6375C138.816 10.2799 139.109 9.98997 139.47 9.98997H141.106C142.837 9.98997 143.663 10.8093 143.663 12.1571C143.663 13.5049 142.837 14.3242 141.106 14.3242Z" fill="#2E2F53"/>
<path d="M2.73378 39.5754C2.26725 39.5754 1.84432 39.4761 1.46499 39.2775C1.09003 39.0747 0.793535 38.7962 0.575533 38.4423C0.361888 38.084 0.255066 37.6803 0.255066 37.2314C0.255066 36.7825 0.361888 36.3811 0.575533 36.0271C0.793535 35.6688 1.09003 35.3904 1.46499 35.1918C1.84432 34.9889 2.26943 34.8875 2.74032 34.8875C3.13709 34.8875 3.49461 34.9566 3.8129 35.0947C4.13554 35.2328 4.40587 35.4314 4.62388 35.6904L3.9437 36.312C3.63414 35.958 3.25045 35.781 2.79264 35.781C2.50923 35.781 2.25635 35.8436 2.03398 35.9688C1.81162 36.0897 1.63721 36.2602 1.51077 36.4803C1.38869 36.7005 1.32765 36.9509 1.32765 37.2314C1.32765 37.512 1.38869 37.7624 1.51077 37.9825C1.63721 38.2027 1.81162 38.3754 2.03398 38.5005C2.25635 38.6214 2.50923 38.6818 2.79264 38.6818C3.25045 38.6818 3.63414 38.5027 3.9437 38.1444L4.62388 38.766C4.40587 39.0293 4.13554 39.2301 3.8129 39.3682C3.49025 39.5063 3.13055 39.5754 2.73378 39.5754ZM13.823 35.8199H12.358V39.4977H11.3116V35.8199H9.85311V34.9652H13.823V35.8199ZM21.4731 34.9652C21.8786 34.9652 22.2296 35.032 22.5261 35.1659C22.8269 35.2997 23.058 35.4896 23.2193 35.7357C23.3807 35.9817 23.4613 36.2731 23.4613 36.6098C23.4613 36.9422 23.3807 37.2336 23.2193 37.4839C23.058 37.73 22.8269 37.9199 22.5261 38.0538C22.2296 38.1833 21.8786 38.248 21.4731 38.248H20.5509V39.4977H19.4914V34.9652H21.4731ZM21.4142 37.3933C21.7325 37.3933 21.9745 37.3264 22.1402 37.1926C22.3059 37.0545 22.3887 36.8602 22.3887 36.6098C22.3887 36.3552 22.3059 36.1609 22.1402 36.0271C21.9745 35.889 21.7325 35.8199 21.4142 35.8199H20.5509V37.3933H21.4142ZM32.0335 38.5264H29.908L29.5025 39.4977H28.4168L30.4573 34.9652H31.5038L33.5508 39.4977H32.439L32.0335 38.5264ZM31.7 37.73L30.974 35.9947L30.2481 37.73H31.7ZM39.7489 34.9652L40.6972 36.3379L41.6456 34.9652H42.8882L41.3643 37.1343L43.0124 39.4977H41.7633L40.6972 37.9955L39.6443 39.4977H38.4213L40.0563 37.1796L38.5259 34.9652H39.7489ZM50.6663 39.5754C50.191 39.5754 49.7615 39.4739 49.3779 39.2711C48.9986 39.0682 48.6999 38.7898 48.4819 38.4358C48.2682 38.0775 48.1614 37.6761 48.1614 37.2314C48.1614 36.7868 48.2682 36.3875 48.4819 36.0335C48.6999 35.6753 48.9986 35.3946 49.3779 35.1918C49.7615 34.9889 50.191 34.8875 50.6663 34.8875C51.1415 34.8875 51.5688 34.9889 51.9482 35.1918C52.3275 35.3946 52.6261 35.6753 52.8442 36.0335C53.0621 36.3875 53.1712 36.7868 53.1712 37.2314C53.1712 37.6761 53.0621 38.0775 52.8442 38.4358C52.6261 38.7898 52.3275 39.0682 51.9482 39.2711C51.5688 39.4739 51.1415 39.5754 50.6663 39.5754ZM50.6663 38.6818C50.9366 38.6818 51.1807 38.6214 51.3988 38.5005C51.6168 38.3754 51.7868 38.2027 51.9089 37.9825C52.0353 37.7624 52.0986 37.512 52.0986 37.2314C52.0986 36.9509 52.0353 36.7005 51.9089 36.4803C51.7868 36.2602 51.6168 36.0897 51.3988 35.9688C51.1807 35.8436 50.9366 35.781 50.6663 35.781C50.3959 35.781 50.1518 35.8436 49.9338 35.9688C49.7158 36.0897 49.5436 36.2602 49.4171 36.4803C49.295 36.7005 49.234 36.9509 49.234 37.2314C49.234 37.512 49.295 37.7624 49.4171 37.9825C49.5436 38.2027 49.7158 38.3754 49.9338 38.5005C50.1518 38.6214 50.3959 38.6818 50.6663 38.6818ZM62.1625 37.1343C62.4415 37.2163 62.6552 37.3501 62.8034 37.5357C62.9517 37.7214 63.0258 37.9501 63.0258 38.2221C63.0258 38.6236 62.871 38.9365 62.5614 39.161C62.2563 39.3855 61.8181 39.4977 61.2469 39.4977H58.9905V34.9652H61.1226C61.6546 34.9652 62.0688 35.0666 62.3652 35.2695C62.6618 35.4724 62.81 35.7616 62.81 36.1371C62.81 36.3616 62.7533 36.5602 62.6399 36.7328C62.5266 36.9012 62.3674 37.035 62.1625 37.1343ZM60.0435 36.8429H61.031C61.2622 36.8429 61.4365 36.7976 61.5542 36.7069C61.672 36.612 61.7308 36.4738 61.7308 36.2925C61.7308 36.1156 61.6698 35.9796 61.5477 35.8846C61.43 35.7896 61.2578 35.7422 61.031 35.7422H60.0435V36.8429ZM61.2076 38.7207C61.7047 38.7207 61.9532 38.5264 61.9532 38.1379C61.9532 37.7624 61.7047 37.5746 61.2076 37.5746H60.0435V38.7207H61.2076ZM71.0514 39.5754C70.5759 39.5754 70.1469 39.4739 69.763 39.2711C69.3836 39.0682 69.0848 38.7898 68.867 38.4358C68.6531 38.0775 68.5465 37.6761 68.5465 37.2314C68.5465 36.7868 68.6531 36.3875 68.867 36.0335C69.0848 35.6753 69.3836 35.3946 69.763 35.1918C70.1469 34.9889 70.5759 34.8875 71.0514 34.8875C71.5268 34.8875 71.9539 34.9889 72.3332 35.1918C72.7126 35.3946 73.0115 35.6753 73.2292 36.0335C73.447 36.3875 73.5563 36.7868 73.5563 37.2314C73.5563 37.6761 73.447 38.0775 73.2292 38.4358C73.0115 38.7898 72.7126 39.0682 72.3332 39.2711C71.9539 39.4739 71.5268 39.5754 71.0514 39.5754ZM71.0514 38.6818C71.3215 38.6818 71.5661 38.6214 71.7839 38.5005C72.0017 38.3754 72.1717 38.2027 72.294 37.9825C72.4202 37.7624 72.4837 37.512 72.4837 37.2314C72.4837 36.9509 72.4202 36.7005 72.294 36.4803C72.1717 36.2602 72.0017 36.0897 71.7839 35.9688C71.5661 35.8436 71.3215 35.781 71.0514 35.781C70.7813 35.781 70.5367 35.8436 70.3189 35.9688C70.1011 36.0897 69.9284 36.2602 69.8022 36.4803C69.6799 36.7005 69.6191 36.9509 69.6191 37.2314C69.6191 37.512 69.6799 37.7624 69.8022 37.9825C69.9284 38.2027 70.1011 38.3754 70.3189 38.5005C70.5367 38.6214 70.7813 38.6818 71.0514 38.6818ZM79.3757 34.9652H80.4286V37.9178L82.613 34.9652H83.6071V39.4977H82.5607V36.5515L80.3763 39.4977H79.3757V34.9652ZM81.4881 34.6738C80.651 34.6738 80.2278 34.3436 80.2193 33.6831H80.9453C80.9538 33.9982 81.135 34.1558 81.4881 34.1558C81.6627 34.1558 81.7955 34.1169 81.8871 34.0392C81.9786 33.9572 82.0264 33.8385 82.031 33.6831H82.7569C82.7523 34.0069 82.6457 34.2529 82.4364 34.4213C82.2272 34.5896 81.9113 34.6738 81.4881 34.6738ZM98.7704 39.5754C98.3035 39.5754 97.881 39.4761 97.5016 39.2775C97.1262 39.0747 96.83 38.7962 96.6122 38.4423C96.3983 38.084 96.2917 37.6803 96.2917 37.2314C96.2917 36.7825 96.3983 36.3811 96.6122 36.0271C96.83 35.6688 97.1262 35.3904 97.5016 35.1918C97.881 34.9889 98.3061 34.8875 98.777 34.8875C99.1733 34.8875 99.531 34.9566 99.8495 35.0947C100.172 35.2328 100.442 35.4314 100.661 35.6904L99.9804 36.312C99.6703 35.958 99.2871 35.781 98.8293 35.781C98.5454 35.781 98.293 35.8436 98.0706 35.9688C97.8483 36.0897 97.6736 36.2602 97.5474 36.4803C97.4251 36.7005 97.3643 36.9509 97.3643 37.2314C97.3643 37.512 97.4251 37.7624 97.5474 37.9825C97.6736 38.2027 97.8483 38.3754 98.0706 38.5005C98.293 38.6214 98.5454 38.6818 98.8293 38.6818C99.2871 38.6818 99.6703 38.5027 99.9804 38.1444L100.661 38.766C100.442 39.0293 100.172 39.2301 99.8495 39.3682C99.5265 39.5063 99.1668 39.5754 98.7704 39.5754ZM109.899 38.6559V39.4977H106.354V34.9652H109.814V35.8069H107.407V36.7911H109.533V37.607H107.407V38.6559H109.899ZM117.739 34.9652C118.145 34.9652 118.496 35.032 118.792 35.1659C119.093 35.2997 119.325 35.4896 119.486 35.7357C119.647 35.9817 119.728 36.2731 119.728 36.6098C119.728 36.9422 119.647 37.2336 119.486 37.4839C119.325 37.73 119.093 37.9199 118.792 38.0538C118.496 38.1833 118.145 38.248 117.739 38.248H116.817V39.4977H115.758V34.9652H117.739ZM117.681 37.3933C117.999 37.3933 118.241 37.3264 118.407 37.1926C118.573 37.0545 118.655 36.8602 118.655 36.6098C118.655 36.3552 118.573 36.1609 118.407 36.0271C118.241 35.889 117.999 35.8199 117.681 35.8199H116.817V37.3933H117.681ZM128.602 37.1343C128.881 37.2163 129.094 37.3501 129.243 37.5357C129.391 37.7214 129.465 37.9501 129.465 38.2221C129.465 38.6236 129.31 38.9365 129.001 39.161C128.695 39.3855 128.257 39.4977 127.686 39.4977H125.43V34.9652H127.562C128.094 34.9652 128.508 35.0666 128.805 35.2695C129.101 35.4724 129.249 35.7616 129.249 36.1371C129.249 36.3616 129.193 36.5602 129.079 36.7328C128.966 36.9012 128.807 37.035 128.602 37.1343ZM126.483 36.8429H127.471C127.701 36.8429 127.876 36.7976 127.994 36.7069C128.111 36.612 128.17 36.4738 128.17 36.2925C128.17 36.1156 128.109 35.9796 127.987 35.8846C127.869 35.7896 127.697 35.7422 127.471 35.7422H126.483V36.8429ZM127.647 38.7207C128.144 38.7207 128.393 38.5264 128.393 38.1379C128.393 37.7624 128.144 37.5746 127.647 37.5746H126.483V38.7207H127.647ZM135.306 34.9652H136.359V37.9178L138.544 34.9652H139.538V39.4977H138.491V36.5515L136.307 39.4977H135.306V34.9652ZM147.846 39.5754C147.379 39.5754 146.956 39.4761 146.577 39.2775C146.202 39.0747 145.905 38.7962 145.687 38.4423C145.474 38.084 145.367 37.6803 145.367 37.2314C145.367 36.7825 145.474 36.3811 145.687 36.0271C145.905 35.6688 146.202 35.3904 146.577 35.1918C146.956 34.9889 147.381 34.8875 147.852 34.8875C148.249 34.8875 148.606 34.9566 148.925 35.0947C149.247 35.2328 149.518 35.4314 149.736 35.6904L149.056 36.312C148.746 35.958 148.362 35.781 147.905 35.781C147.621 35.781 147.368 35.8436 147.146 35.9688C146.923 36.0897 146.749 36.2602 146.623 36.4803C146.5 36.7005 146.44 36.9509 146.44 37.2314C146.44 37.512 146.5 37.7624 146.623 37.9825C146.749 38.2027 146.923 38.3754 147.146 38.5005C147.368 38.6214 147.621 38.6818 147.905 38.6818C148.362 38.6818 148.746 38.5027 149.056 38.1444L149.736 38.766C149.518 39.0293 149.247 39.2301 148.925 39.3682C148.602 39.5063 148.243 39.5754 147.846 39.5754Z" fill="#2E2F53"/>
</svg>
