<svg width="165" height="44" viewBox="0 0 165 44" fill="none" xmlns="http://www.w3.org/2000/svg">
<path fill-rule="evenodd" clip-rule="evenodd" d="M2.87765 0H29.3425C30.9317 0 32.2201 1.27554 32.2201 2.849V29.1296C32.2201 30.703 30.9317 31.9786 29.3425 31.9786H2.87765C1.28837 31.9786 0 30.703 0 29.1296V2.849C0 1.27554 1.28837 0 2.87765 0ZM6.9291 25.8445C6.53178 25.8445 6.20969 25.5256 6.20969 25.1323V6.20676C6.20969 5.81339 6.53178 5.49451 6.9291 5.49451H25.3203C25.7176 5.49451 26.0397 5.81339 26.0397 6.20676V25.1323C26.0397 25.5256 25.7176 25.8445 25.3203 25.8445H19.9636C19.5663 25.8445 19.2442 25.5256 19.2442 25.1323V11.5268C19.2442 11.1335 18.9221 10.8146 18.5248 10.8146H13.7246C13.3273 10.8146 13.0052 11.1335 13.0052 11.5268V25.1323C13.0052 25.5256 12.6832 25.8445 12.2858 25.8445H6.9291Z" fill="white"/>
<path d="M52.2715 25.5912C52.3783 25.8664 52.6453 26.048 52.943 26.048H58.4973C59.0157 26.048 59.3639 25.5216 59.1567 25.0511L50.8211 6.12556C50.7067 5.86588 50.4478 5.698 50.1616 5.698H44.3084C44.0222 5.698 43.7633 5.86588 43.6489 6.12556L35.3133 25.0511C35.106 25.5216 35.4543 26.048 35.9727 26.048H41.4098C41.7075 26.048 41.9745 25.8664 42.0813 25.5912L43.1034 22.958C43.2102 22.6829 43.4772 22.5013 43.7749 22.5013H50.5778C50.8756 22.5013 51.1426 22.6829 51.2494 22.958L52.2715 25.5912ZM46.2329 17.5592C45.7278 17.5592 45.3799 17.0573 45.5616 16.5907L46.5051 14.167C46.7419 13.5588 47.6109 13.5588 47.8477 14.167L48.7912 16.5907C48.9728 17.0573 48.625 17.5592 48.1199 17.5592H46.2329ZM71.3594 5.698H62.2078C61.8104 5.698 61.4883 6.01689 61.4883 6.41025V25.3357C61.4883 25.7291 61.8104 26.048 62.2078 26.048H67.6816C68.079 26.048 68.401 25.7291 68.401 25.3357V21.76C68.401 21.3666 68.7231 21.0477 69.1204 21.0477H71.3594C77.0712 21.0477 80.7035 18.0825 80.7035 13.3729C80.7035 8.66331 77.0712 5.698 71.3594 5.698ZM70.9201 15.7567H69.1204C68.7231 15.7567 68.401 15.4378 68.401 15.0444V11.7013C68.401 11.3079 68.7231 10.989 69.1204 10.989H70.9201C72.8238 10.989 73.7317 11.8902 73.7317 13.3729C73.7317 14.8555 72.8238 15.7567 70.9201 15.7567ZM99.7988 6.41025C99.7988 6.01688 99.4765 5.698 99.0794 5.698H81.7128C81.3157 5.698 80.9934 6.01689 80.9934 6.41025V10.3058C80.9934 10.6992 81.3157 11.0181 81.7128 11.0181H86.2789C86.676 11.0181 86.9983 11.337 86.9983 11.7303V25.3357C86.9983 25.7291 87.3206 26.048 87.7177 26.048H93.0745C93.4716 26.048 93.7939 25.7291 93.7939 25.3357V11.7303C93.7939 11.337 94.1162 11.0181 94.5133 11.0181H99.0794C99.4765 11.0181 99.7988 10.6992 99.7988 10.3058V6.41025ZM116.096 5.698C115.699 5.698 115.376 6.01689 115.376 6.41025V12.1954C115.376 12.5888 115.054 12.9077 114.657 12.9077H109.71C109.313 12.9077 108.991 12.5888 108.991 12.1954V6.41025C108.991 6.01689 108.668 5.698 108.271 5.698H102.797C102.4 5.698 102.078 6.01689 102.078 6.41025V25.3357C102.078 25.7291 102.4 26.048 102.797 26.048H108.271C108.668 26.048 108.991 25.7291 108.991 25.3357V19.2598C108.991 18.8664 109.313 18.5476 109.71 18.5476H114.657C115.054 18.5476 115.376 18.8664 115.376 19.2598V25.3357C115.376 25.7291 115.699 26.048 116.096 26.048H121.57C121.967 26.048 122.289 25.7291 122.289 25.3357V6.41025C122.289 6.01689 121.967 5.698 121.57 5.698H116.096ZM133.449 20.8733C133.051 20.8733 132.73 20.5544 132.73 20.161V18.911C132.73 18.5176 133.051 18.1987 133.449 18.1987H140.68C141.078 18.1987 141.4 17.8798 141.4 17.4865V13.9688C141.4 13.5755 141.078 13.2565 140.68 13.2565H133.449C133.051 13.2565 132.73 12.9377 132.73 12.5443V11.585C132.73 11.1916 133.051 10.8727 133.449 10.8727H141.882C142.279 10.8727 142.601 10.5538 142.601 10.1605V6.41025C142.601 6.01689 142.279 5.698 141.882 5.698H126.654C126.256 5.698 125.934 6.01689 125.934 6.41025V25.3357C125.934 25.7291 126.256 26.048 126.654 26.048H142.262C142.659 26.048 142.982 25.7291 142.982 25.3357V21.5855C142.982 21.1922 142.659 20.8733 142.262 20.8733H133.449ZM155.657 5.698H146.505C146.108 5.698 145.786 6.01689 145.786 6.41025V25.3357C145.786 25.7291 146.108 26.048 146.505 26.048H151.979C152.376 26.048 152.699 25.7291 152.699 25.3357V21.76C152.699 21.3666 153.02 21.0477 153.418 21.0477H155.657C161.368 21.0477 165.001 18.0825 165.001 13.3729C165.001 8.66331 161.368 5.698 155.657 5.698ZM155.217 15.7567H153.418C153.02 15.7567 152.699 15.4378 152.699 15.0444V11.7013C152.699 11.3079 153.02 10.989 153.418 10.989H155.217C157.122 10.989 158.029 11.8902 158.029 13.3729C158.029 14.8555 157.122 15.7567 155.217 15.7567Z" fill="white"/>
<path d="M3.00837 43.533C2.49519 43.533 2.02997 43.4238 1.61271 43.2054C1.20025 42.9822 0.874112 42.6759 0.634311 42.2866C0.399303 41.8925 0.281799 41.4484 0.281799 40.9546C0.281799 40.4608 0.399303 40.0192 0.634311 39.6299C0.874112 39.2358 1.20025 38.9295 1.61271 38.7111C2.02997 38.4879 2.49759 38.3763 3.01556 38.3763C3.45201 38.3763 3.84528 38.4523 4.1954 38.6042C4.55031 38.7561 4.84767 38.9746 5.08747 39.2595L4.33928 39.9433C3.99876 39.5539 3.5767 39.3592 3.07312 39.3592C2.76137 39.3592 2.4832 39.4281 2.2386 39.5658C1.994 39.6987 1.80215 39.8863 1.66307 40.1284C1.52878 40.3706 1.46163 40.646 1.46163 40.9546C1.46163 41.2633 1.52878 41.5387 1.66307 41.7809C1.80215 42.023 1.994 42.213 2.2386 42.3507C2.4832 42.4836 2.76137 42.5501 3.07312 42.5501C3.5767 42.5501 3.99876 42.353 4.33928 41.9589L5.08747 42.6427C4.84767 42.9323 4.55031 43.1531 4.1954 43.3051C3.84049 43.457 3.44481 43.533 3.00837 43.533ZM15.2064 39.4019H13.5949V43.4475H12.4439V39.4019H10.8396V38.4618H15.2064V39.4019ZM23.6215 38.4618C24.0676 38.4618 24.4537 38.5353 24.7798 38.6826C25.1107 38.8298 25.3649 39.0387 25.5424 39.3093C25.7198 39.58 25.8085 39.9005 25.8085 40.2709C25.8085 40.6365 25.7198 40.957 25.5424 41.2324C25.3649 41.5031 25.1107 41.712 24.7798 41.8592C24.4537 42.0017 24.0676 42.0729 23.6215 42.0729H22.6072V43.4475H21.4417V38.4618H23.6215ZM23.5568 41.1327C23.9069 41.1327 24.1731 41.0591 24.3553 40.9119C24.5375 40.76 24.6287 40.5463 24.6287 40.2709C24.6287 39.9908 24.5375 39.7771 24.3553 39.6299C24.1731 39.4779 23.9069 39.4019 23.5568 39.4019H22.6072V41.1327H23.5568ZM35.2379 42.3791H32.8998L32.4538 43.4475H31.2596L33.5042 38.4618H34.6552L36.907 43.4475H35.684L35.2379 42.3791ZM34.871 41.5031L34.0725 39.5942L33.2739 41.5031H34.871ZM43.7248 38.4618L44.768 39.9717L45.8111 38.4618H47.178L45.5018 40.8478L47.3147 43.4475H45.9406L44.768 41.7951L43.6097 43.4475H42.2644L44.063 40.8977L42.3795 38.4618H43.7248ZM55.7339 43.533C55.2111 43.533 54.7387 43.4214 54.3167 43.1982C53.8994 42.9751 53.5708 42.6688 53.3311 42.2794C53.096 41.8853 52.9786 41.4437 52.9786 40.9546C52.9786 40.4655 53.096 40.0264 53.3311 39.637C53.5708 39.2429 53.8994 38.9342 54.3167 38.7111C54.7387 38.4879 55.2111 38.3763 55.7339 38.3763C56.2566 38.3763 56.7267 38.4879 57.1439 38.7111C57.5612 38.9342 57.8897 39.2429 58.1295 39.637C58.3693 40.0264 58.4892 40.4655 58.4892 40.9546C58.4892 41.4437 58.3693 41.8853 58.1295 42.2794C57.8897 42.6688 57.5612 42.9751 57.1439 43.1982C56.7267 43.4214 56.2566 43.533 55.7339 43.533ZM55.7339 42.5501C56.0312 42.5501 56.2998 42.4836 56.5396 42.3507C56.7794 42.213 56.9665 42.023 57.1008 41.7809C57.2398 41.5387 57.3094 41.2633 57.3094 40.9546C57.3094 40.646 57.2398 40.3706 57.1008 40.1284C56.9665 39.8863 56.7794 39.6987 56.5396 39.5658C56.2998 39.4281 56.0312 39.3592 55.7339 39.3592C55.4365 39.3592 55.1679 39.4281 54.9282 39.5658C54.6883 39.6987 54.4989 39.8863 54.3598 40.1284C54.2255 40.3706 54.1584 40.646 54.1584 40.9546C54.1584 41.2633 54.2255 41.5387 54.3598 41.7809C54.4989 42.023 54.6883 42.213 54.9282 42.3507C55.1679 42.4836 55.4365 42.5501 55.7339 42.5501ZM68.3796 40.8478C68.6866 40.938 68.9216 41.0852 69.0847 41.2894C69.2478 41.4936 69.3293 41.7452 69.3293 42.0444C69.3293 42.486 69.159 42.8302 68.8185 43.0771C68.4828 43.3241 68.0008 43.4475 67.3725 43.4475H64.8905V38.4618H67.2358C67.8209 38.4618 68.2766 38.5734 68.6027 38.7965C68.9288 39.0197 69.0919 39.3378 69.0919 39.7509C69.0919 39.9979 69.0296 40.2163 68.9048 40.4062C68.7801 40.5914 68.6051 40.7386 68.3796 40.8478ZM66.0488 40.5273H67.1351C67.3893 40.5273 67.5811 40.4774 67.7106 40.3777C67.8401 40.2732 67.9048 40.1213 67.9048 39.9219C67.9048 39.7272 67.8377 39.5776 67.7034 39.4732C67.5739 39.3687 67.3845 39.3165 67.1351 39.3165H66.0488V40.5273ZM67.3293 42.5928C67.8761 42.5928 68.1494 42.3791 68.1494 41.9518C68.1494 41.5387 67.8761 41.3321 67.3293 41.3321H66.0488V42.5928H67.3293ZM78.1574 43.533C77.6344 43.533 77.1624 43.4214 76.7401 43.1982C76.3229 42.9751 75.9941 42.6688 75.7545 42.2794C75.5193 41.8853 75.402 41.4437 75.402 40.9546C75.402 40.4655 75.5193 40.0264 75.7545 39.637C75.9941 39.2429 76.3229 38.9342 76.7401 38.7111C77.1624 38.4879 77.6344 38.3763 78.1574 38.3763C78.6804 38.3763 79.1502 38.4879 79.5674 38.7111C79.9847 38.9342 80.3135 39.2429 80.553 39.637C80.7926 40.0264 80.9127 40.4655 80.9127 40.9546C80.9127 41.4437 80.7926 41.8853 80.553 42.2794C80.3135 42.6688 79.9847 42.9751 79.5674 43.1982C79.1502 43.4214 78.6804 43.533 78.1574 43.533ZM78.1574 42.5501C78.4545 42.5501 78.7236 42.4836 78.9631 42.3507C79.2027 42.213 79.3897 42.023 79.5243 41.7809C79.6631 41.5387 79.7329 41.2633 79.7329 40.9546C79.7329 40.646 79.6631 40.3706 79.5243 40.1284C79.3897 39.8863 79.2027 39.6987 78.9631 39.5658C78.7236 39.4281 78.4545 39.3592 78.1574 39.3592C77.8603 39.3592 77.5912 39.4281 77.3516 39.5658C77.1121 39.6987 76.9221 39.8863 76.7833 40.1284C76.6488 40.3706 76.5819 40.646 76.5819 40.9546C76.5819 41.2633 76.6488 41.5387 76.7833 41.7809C76.9221 42.023 77.1121 42.213 77.3516 42.3507C77.5912 42.4836 77.8603 42.5501 78.1574 42.5501ZM87.314 38.4618H88.4723V41.7096L90.8751 38.4618H91.9686V43.4475H90.8176V40.2068L88.4148 43.4475H87.314V38.4618ZM89.6377 38.1413C88.7169 38.1413 88.2514 37.778 88.2421 37.0515H89.0406C89.05 37.3982 89.2493 37.5715 89.6377 37.5715C89.8298 37.5715 89.9759 37.5287 90.0766 37.4433C90.1773 37.353 90.2298 37.2225 90.2349 37.0515H91.0334C91.0284 37.4076 90.9111 37.6783 90.6809 37.8635C90.4507 38.0487 90.1032 38.1413 89.6377 38.1413ZM108.648 43.533C108.135 43.533 107.67 43.4238 107.253 43.2054C106.84 42.9822 106.514 42.6759 106.274 42.2866C106.039 41.8925 105.922 41.4484 105.922 40.9546C105.922 40.4608 106.039 40.0192 106.274 39.6299C106.514 39.2358 106.84 38.9295 107.253 38.7111C107.67 38.4879 108.137 38.3763 108.655 38.3763C109.091 38.3763 109.485 38.4523 109.835 38.6042C110.19 38.7561 110.487 38.9746 110.727 39.2595L109.979 39.9433C109.638 39.5539 109.217 39.3592 108.713 39.3592C108.401 39.3592 108.123 39.4281 107.878 39.5658C107.634 39.6987 107.442 39.8863 107.303 40.1284C107.168 40.3706 107.101 40.646 107.101 40.9546C107.101 41.2633 107.168 41.5387 107.303 41.7809C107.442 42.023 107.634 42.213 107.878 42.3507C108.123 42.4836 108.401 42.5501 108.713 42.5501C109.217 42.5501 109.638 42.353 109.979 41.9589L110.727 42.6427C110.487 42.9323 110.19 43.1531 109.835 43.3051C109.48 43.457 109.084 43.533 108.648 43.533ZM120.89 42.5216V43.4475H116.99V38.4618H120.796V39.3877H118.149V40.4703H120.487V41.3678H118.149V42.5216H120.89ZM129.514 38.4618C129.96 38.4618 130.346 38.5353 130.672 38.6826C131.003 38.8298 131.258 39.0387 131.435 39.3093C131.613 39.58 131.701 39.9005 131.701 40.2709C131.701 40.6365 131.613 40.957 131.435 41.2324C131.258 41.5031 131.003 41.712 130.672 41.8592C130.346 42.0017 129.96 42.0729 129.514 42.0729H128.5V43.4475H127.334V38.4618H129.514ZM129.449 41.1327C129.8 41.1327 130.066 41.0591 130.248 40.9119C130.431 40.76 130.521 40.5463 130.521 40.2709C130.521 39.9908 130.431 39.7771 130.248 39.6299C130.066 39.4779 129.8 39.4019 129.449 39.4019H128.5V41.1327H129.449ZM141.463 40.8478C141.77 40.938 142.004 41.0852 142.168 41.2894C142.331 41.4936 142.412 41.7452 142.412 42.0444C142.412 42.486 142.242 42.8302 141.902 43.0771C141.566 43.3241 141.084 43.4475 140.456 43.4475H137.974V38.4618H140.319C140.904 38.4618 141.36 38.5734 141.686 38.7965C142.012 39.0197 142.175 39.3378 142.175 39.7509C142.175 39.9979 142.112 40.2163 141.988 40.4062C141.863 40.5914 141.688 40.7386 141.463 40.8478ZM139.132 40.5273H140.218C140.472 40.5273 140.664 40.4774 140.794 40.3777C140.923 40.2732 140.988 40.1213 140.988 39.9219C140.988 39.7272 140.921 39.5776 140.786 39.4732C140.657 39.3687 140.468 39.3165 140.218 39.3165H139.132V40.5273ZM140.412 42.5928C140.959 42.5928 141.233 42.3791 141.233 41.9518C141.233 41.5387 140.959 41.3321 140.412 41.3321H139.132V42.5928H140.412ZM148.837 38.4618H149.996V41.7096L152.398 38.4618H153.492V43.4475H152.341V40.2068L149.938 43.4475H148.837V38.4618ZM162.631 43.533C162.118 43.533 161.652 43.4238 161.235 43.2054C160.823 42.9822 160.496 42.6759 160.257 42.2866C160.021 41.8925 159.904 41.4484 159.904 40.9546C159.904 40.4608 160.021 40.0192 160.257 39.6299C160.496 39.2358 160.823 38.9295 161.235 38.7111C161.652 38.4879 162.12 38.3763 162.638 38.3763C163.075 38.3763 163.467 38.4523 163.818 38.6042C164.172 38.7561 164.47 38.9746 164.71 39.2595L163.962 39.9433C163.621 39.5539 163.199 39.3592 162.695 39.3592C162.384 39.3592 162.106 39.4281 161.861 39.5658C161.616 39.6987 161.424 39.8863 161.285 40.1284C161.151 40.3706 161.084 40.646 161.084 40.9546C161.084 41.2633 161.151 41.5387 161.285 41.7809C161.424 42.023 161.616 42.213 161.861 42.3507C162.106 42.4836 162.384 42.5501 162.695 42.5501C163.199 42.5501 163.621 42.353 163.962 41.9589L164.71 42.6427C164.47 42.9323 164.172 43.1531 163.818 43.3051C163.463 43.457 163.067 43.533 162.631 43.533Z" fill="white"/>
</svg>
