<svg width="24" height="24" viewBox="0 0 24 24" fill="none" xmlns="http://www.w3.org/2000/svg">
<circle cx="12" cy="12" r="11.5" transform="rotate(-90 12 12)" fill="white" stroke="#6FCF97"/>
<path d="M12 16C11.4813 16 11.0609 15.5795 11.0609 15.0609V12.8814H8.88136C8.3946 12.8814 8 12.4868 8 12C8 11.5132 8.3946 11.1186 8.88136 11.1186H11.0609V8.93913C11.0609 8.42046 11.4813 8 12 8C12.5187 8 12.9391 8.42046 12.9391 8.93913V11.1186H15.1186C15.6054 11.1186 16 11.5132 16 12C16 12.4868 15.6054 12.8814 15.1186 12.8814H12.9391V15.0609C12.9391 15.5795 12.5187 16 12 16Z" fill="#6FCF97"/>
</svg>
