<svg aria-hidden="true" style="position: absolute; width: 0; height: 0; overflow: hidden;" version="1.1" xmlns="http://www.w3.org/2000/svg" xmlns:xlink="http://www.w3.org/1999/xlink">
<defs>
<symbol id="icon-logo-footer" viewBox="0 0 120 32">
<path fill="#fff" style="fill: var(--color1, #fff)" d="M2.093 0c-1.156 0-2.093 0.928-2.093 2.072v19.113c0 1.144 0.937 2.072 2.093 2.072h19.247c1.156 0 2.093-0.928 2.093-2.072v-19.113c0-1.144-0.937-2.072-2.093-2.072h-19.247zM5.039 18.796c-0.289 0-0.523-0.232-0.523-0.518v-13.764c0-0.286 0.234-0.518 0.523-0.518h13.375c0.289 0 0.523 0.232 0.523 0.518v13.764c0 0.286-0.234 0.518-0.523 0.518h-3.896c-0.289 0-0.523-0.232-0.523-0.518v-9.895c0-0.286-0.234-0.518-0.523-0.518h-3.491c-0.289 0-0.523 0.232-0.523 0.518v9.895c0 0.286-0.234 0.518-0.523 0.518h-3.896z"></path>
<path fill="#fff" style="fill: var(--color1, #fff)" d="M38.016 18.612c0.078 0.2 0.272 0.332 0.488 0.332h4.039c0.377 0 0.63-0.383 0.48-0.725l-6.062-13.764c-0.083-0.189-0.272-0.311-0.48-0.311h-4.257c-0.208 0-0.396 0.122-0.48 0.311l-6.062 13.764c-0.151 0.342 0.103 0.725 0.48 0.725h3.954c0.216 0 0.411-0.132 0.488-0.332l0.743-1.915c0.078-0.2 0.272-0.332 0.488-0.332h4.948c0.217 0 0.411 0.132 0.488 0.332l0.743 1.915zM33.624 12.77c-0.367 0-0.62-0.365-0.488-0.704l0.686-1.763c0.172-0.442 0.804-0.442 0.976 0l0.686 1.763c0.132 0.339-0.121 0.704-0.488 0.704h-1.372zM51.898 4.144h-6.656c-0.289 0-0.523 0.232-0.523 0.518v13.764c0 0.286 0.234 0.518 0.523 0.518h3.981c0.289 0 0.523-0.232 0.523-0.518v-2.601c0-0.286 0.234-0.518 0.523-0.518h1.628c4.154 0 6.796-2.156 6.796-5.582s-2.642-5.582-6.796-5.582zM51.578 11.459h-1.309c-0.289 0-0.523-0.232-0.523-0.518v-2.431c0-0.286 0.234-0.518 0.523-0.518h1.309c1.385 0 2.045 0.655 2.045 1.734s-0.66 1.734-2.045 1.734zM72.581 4.662c0-0.286-0.234-0.518-0.523-0.518h-12.63c-0.289 0-0.523 0.232-0.523 0.518v2.833c0 0.286 0.234 0.518 0.523 0.518h3.321c0.289 0 0.523 0.232 0.523 0.518v9.895c0 0.286 0.234 0.518 0.523 0.518h3.896c0.289 0 0.523-0.232 0.523-0.518v-9.895c0-0.286 0.234-0.518 0.523-0.518h3.321c0.289 0 0.523-0.232 0.523-0.518v-2.833zM84.433 4.144c-0.289 0-0.524 0.232-0.524 0.518v4.207c0 0.286-0.234 0.518-0.523 0.518h-3.598c-0.289 0-0.523-0.232-0.523-0.518v-4.207c0-0.286-0.235-0.518-0.524-0.518h-3.981c-0.289 0-0.523 0.232-0.523 0.518v13.764c0 0.286 0.234 0.518 0.523 0.518h3.981c0.289 0 0.524-0.232 0.524-0.518v-4.419c0-0.286 0.234-0.518 0.523-0.518h3.598c0.289 0 0.523 0.232 0.523 0.518v4.419c0 0.286 0.235 0.518 0.524 0.518h3.981c0.289 0 0.523-0.232 0.523-0.518v-13.764c0-0.286-0.234-0.518-0.523-0.518h-3.981zM97.054 15.181c-0.289 0-0.523-0.232-0.523-0.518v-0.909c0-0.286 0.233-0.518 0.523-0.518h5.259c0.289 0 0.524-0.232 0.524-0.518v-2.558c0-0.286-0.234-0.518-0.524-0.518h-5.259c-0.289 0-0.523-0.232-0.523-0.518v-0.698c0-0.286 0.233-0.518 0.523-0.518h6.133c0.289 0 0.523-0.232 0.523-0.518v-2.727c0-0.286-0.234-0.518-0.523-0.518h-11.075c-0.289 0-0.524 0.232-0.524 0.518v13.764c0 0.286 0.234 0.518 0.524 0.518h11.351c0.289 0 0.524-0.232 0.524-0.518v-2.727c0-0.286-0.235-0.518-0.524-0.518h-6.409zM113.205 4.144h-6.656c-0.289 0-0.523 0.232-0.523 0.518v13.764c0 0.286 0.234 0.518 0.523 0.518h3.981c0.289 0 0.524-0.232 0.524-0.518v-2.601c0-0.286 0.233-0.518 0.523-0.518h1.628c4.153 0 6.796-2.156 6.796-5.582s-2.642-5.582-6.796-5.582zM112.885 11.459h-1.308c-0.289 0-0.523-0.232-0.523-0.518v-2.431c0-0.286 0.233-0.518 0.523-0.518h1.308c1.385 0 2.045 0.655 2.045 1.734s-0.66 1.734-2.045 1.734z"></path>
<path fill="#fff" style="fill: var(--color1, #fff)" d="M2.188 31.66c-0.373 0-0.712-0.079-1.015-0.238-0.3-0.162-0.537-0.385-0.712-0.668-0.171-0.287-0.256-0.61-0.256-0.969s0.085-0.68 0.256-0.963c0.174-0.287 0.412-0.509 0.712-0.668 0.303-0.162 0.644-0.244 1.020-0.244 0.317 0 0.603 0.055 0.858 0.166 0.258 0.11 0.474 0.269 0.649 0.477l-0.544 0.497c-0.248-0.283-0.555-0.425-0.921-0.425-0.227 0-0.429 0.050-0.607 0.15-0.178 0.097-0.317 0.233-0.419 0.409-0.098 0.176-0.147 0.376-0.147 0.601s0.049 0.425 0.147 0.601c0.101 0.176 0.241 0.314 0.419 0.414 0.178 0.097 0.38 0.145 0.607 0.145 0.366 0 0.673-0.143 0.921-0.43l0.544 0.497c-0.174 0.211-0.391 0.371-0.649 0.482s-0.546 0.166-0.863 0.166zM11.059 28.656h-1.172v2.942h-0.837v-2.942h-1.167v-0.684h3.176v0.684zM17.179 27.972c0.324 0 0.605 0.053 0.842 0.161 0.241 0.107 0.426 0.259 0.555 0.456s0.194 0.43 0.194 0.699c0 0.266-0.064 0.499-0.194 0.699-0.129 0.197-0.314 0.349-0.555 0.456-0.237 0.104-0.518 0.155-0.842 0.155h-0.738v1h-0.848v-3.626h1.585zM17.132 29.915c0.255 0 0.448-0.054 0.581-0.161 0.133-0.11 0.199-0.266 0.199-0.466 0-0.204-0.066-0.359-0.199-0.466-0.133-0.111-0.326-0.166-0.581-0.166h-0.691v1.259h0.691zM25.628 30.821h-1.7l-0.324 0.777h-0.869l1.632-3.626h0.837l1.638 3.626h-0.889l-0.324-0.777zM25.361 30.184l-0.581-1.388-0.581 1.388h1.162zM31.8 27.972l0.759 1.098 0.759-1.098h0.994l-1.219 1.735 1.318 1.891h-0.999l-0.853-1.202-0.842 1.202h-0.978l1.308-1.854-1.224-1.772h0.978zM40.534 31.66c-0.38 0-0.724-0.081-1.031-0.244-0.303-0.162-0.542-0.385-0.717-0.668-0.171-0.287-0.256-0.608-0.256-0.963s0.085-0.675 0.256-0.958c0.174-0.287 0.413-0.511 0.717-0.673 0.307-0.162 0.65-0.244 1.031-0.244s0.722 0.081 1.025 0.244c0.303 0.162 0.542 0.387 0.717 0.673 0.174 0.283 0.262 0.603 0.262 0.958s-0.087 0.677-0.262 0.963c-0.174 0.283-0.413 0.506-0.717 0.668s-0.645 0.244-1.025 0.244zM40.534 30.946c0.216 0 0.412-0.048 0.586-0.145 0.174-0.1 0.31-0.238 0.408-0.414 0.101-0.176 0.152-0.376 0.152-0.601s-0.051-0.425-0.152-0.601c-0.098-0.176-0.234-0.313-0.408-0.409-0.174-0.1-0.37-0.15-0.586-0.15s-0.412 0.050-0.586 0.15c-0.174 0.097-0.312 0.233-0.413 0.409-0.098 0.176-0.146 0.376-0.146 0.601s0.049 0.425 0.146 0.601c0.101 0.176 0.239 0.314 0.413 0.414 0.174 0.097 0.37 0.145 0.586 0.145zM49.731 29.707c0.223 0.066 0.394 0.173 0.513 0.321s0.178 0.331 0.178 0.549c0 0.321-0.124 0.572-0.371 0.751-0.244 0.18-0.595 0.269-1.052 0.269h-1.805v-3.626h1.706c0.426 0 0.757 0.081 0.994 0.243s0.356 0.394 0.356 0.694c0 0.18-0.045 0.338-0.136 0.477-0.091 0.135-0.218 0.242-0.382 0.321zM48.035 29.474h0.79c0.185 0 0.324-0.036 0.419-0.109 0.094-0.076 0.141-0.186 0.141-0.331 0-0.142-0.049-0.25-0.146-0.326-0.094-0.076-0.232-0.114-0.413-0.114h-0.79v0.881zM48.967 30.977c0.398 0 0.596-0.155 0.596-0.466 0-0.3-0.199-0.451-0.596-0.451h-0.931v0.917h0.931zM56.842 31.66c-0.38 0-0.724-0.081-1.031-0.244-0.303-0.162-0.543-0.385-0.717-0.668-0.171-0.287-0.256-0.608-0.256-0.963s0.085-0.675 0.256-0.958c0.174-0.287 0.413-0.511 0.717-0.673 0.307-0.162 0.65-0.244 1.031-0.244s0.722 0.081 1.025 0.244c0.303 0.162 0.543 0.387 0.717 0.673 0.174 0.283 0.262 0.603 0.262 0.958s-0.087 0.677-0.262 0.963c-0.174 0.283-0.413 0.506-0.717 0.668s-0.645 0.244-1.025 0.244zM56.842 30.946c0.216 0 0.412-0.048 0.586-0.145 0.174-0.1 0.31-0.238 0.408-0.414 0.101-0.176 0.152-0.376 0.152-0.601s-0.051-0.425-0.152-0.601c-0.098-0.176-0.234-0.313-0.408-0.409-0.174-0.1-0.37-0.15-0.586-0.15s-0.412 0.050-0.586 0.15c-0.174 0.097-0.312 0.233-0.413 0.409-0.098 0.176-0.146 0.376-0.146 0.601s0.049 0.425 0.146 0.601c0.101 0.176 0.239 0.314 0.413 0.414 0.174 0.097 0.37 0.145 0.586 0.145zM63.501 27.972h0.842v2.362l1.748-2.362h0.795v3.626h-0.837v-2.357l-1.748 2.357h-0.801v-3.626zM65.191 27.739c-0.67 0-1.008-0.264-1.015-0.793h0.581c0.007 0.252 0.152 0.378 0.434 0.378 0.14 0 0.246-0.031 0.319-0.093 0.073-0.066 0.111-0.161 0.115-0.285h0.581c-0.004 0.259-0.089 0.456-0.256 0.591s-0.42 0.202-0.759 0.202zM79.017 31.66c-0.373 0-0.711-0.079-1.015-0.238-0.3-0.162-0.537-0.385-0.712-0.668-0.171-0.287-0.256-0.61-0.256-0.969s0.085-0.68 0.256-0.963c0.175-0.287 0.412-0.509 0.712-0.668 0.303-0.162 0.643-0.244 1.020-0.244 0.317 0 0.604 0.055 0.858 0.166 0.258 0.11 0.474 0.269 0.649 0.477l-0.544 0.497c-0.248-0.283-0.554-0.425-0.921-0.425-0.227 0-0.429 0.050-0.607 0.15-0.177 0.097-0.317 0.233-0.418 0.409-0.098 0.176-0.147 0.376-0.147 0.601s0.049 0.425 0.147 0.601c0.101 0.176 0.241 0.314 0.418 0.414 0.178 0.097 0.38 0.145 0.607 0.145 0.367 0 0.673-0.143 0.921-0.43l0.544 0.497c-0.175 0.211-0.391 0.371-0.649 0.482s-0.546 0.166-0.863 0.166zM87.92 30.925v0.673h-2.836v-3.626h2.768v0.673h-1.925v0.787h1.7v0.653h-1.7v0.839h1.993zM94.192 27.972c0.324 0 0.605 0.053 0.842 0.161 0.241 0.107 0.426 0.259 0.555 0.456s0.193 0.43 0.193 0.699c0 0.266-0.064 0.499-0.193 0.699-0.129 0.197-0.314 0.349-0.555 0.456-0.237 0.104-0.518 0.155-0.842 0.155h-0.737v1h-0.848v-3.626h1.585zM94.145 29.915c0.255 0 0.449-0.054 0.581-0.161 0.133-0.11 0.199-0.266 0.199-0.466 0-0.204-0.065-0.359-0.199-0.466-0.132-0.111-0.326-0.166-0.581-0.166h-0.69v1.259h0.69zM102.882 29.707c0.223 0.066 0.393 0.173 0.513 0.321s0.177 0.331 0.177 0.549c0 0.321-0.124 0.572-0.371 0.751-0.244 0.18-0.595 0.269-1.052 0.269h-1.805v-3.626h1.705c0.425 0 0.757 0.081 0.994 0.243s0.356 0.394 0.356 0.694c0 0.18-0.046 0.338-0.136 0.477-0.091 0.135-0.218 0.242-0.382 0.321zM101.187 29.474h0.79c0.185 0 0.324-0.036 0.419-0.109 0.094-0.076 0.141-0.186 0.141-0.331 0-0.142-0.049-0.25-0.147-0.326-0.094-0.076-0.231-0.114-0.413-0.114h-0.79v0.881zM102.118 30.977c0.398 0 0.597-0.155 0.597-0.466 0-0.3-0.199-0.451-0.597-0.451h-0.931v0.917h0.931zM108.245 27.972h0.843v2.362l1.747-2.362h0.796v3.626h-0.837v-2.357l-1.748 2.357h-0.801v-3.626zM118.277 31.66c-0.373 0-0.712-0.079-1.015-0.238-0.3-0.162-0.537-0.385-0.711-0.668-0.172-0.287-0.257-0.61-0.257-0.969s0.085-0.68 0.257-0.963c0.174-0.287 0.412-0.509 0.711-0.668 0.303-0.162 0.644-0.244 1.020-0.244 0.318 0 0.603 0.055 0.858 0.166 0.257 0.11 0.474 0.269 0.649 0.477l-0.544 0.497c-0.248-0.283-0.555-0.425-0.921-0.425-0.226 0-0.428 0.050-0.607 0.15-0.178 0.097-0.318 0.233-0.419 0.409-0.097 0.176-0.146 0.376-0.146 0.601s0.049 0.425 0.146 0.601c0.101 0.176 0.241 0.314 0.419 0.414 0.178 0.097 0.38 0.145 0.607 0.145 0.367 0 0.673-0.143 0.921-0.43l0.544 0.497c-0.175 0.211-0.391 0.371-0.649 0.482s-0.546 0.166-0.863 0.166z"></path>
</symbol>
<symbol id="icon-menu" viewBox="0 0 35 32">
<path fill="#2e2f53" style="fill: var(--color2, #2e2f53)" d="M1.6 0h32c0.884 0 1.6 0.716 1.6 1.6s-0.716 1.6-1.6 1.6h-32c-0.884 0-1.6-0.716-1.6-1.6s0.716-1.6 1.6-1.6z"></path>
<path fill="#2e2f53" style="fill: var(--color2, #2e2f53)" d="M1.6 14.4h32c0.884 0 1.6 0.716 1.6 1.6s-0.716 1.6-1.6 1.6h-32c-0.884 0-1.6-0.716-1.6-1.6s0.716-1.6 1.6-1.6z"></path>
<path fill="#2e2f53" style="fill: var(--color2, #2e2f53)" d="M1.601 28.8h31.999c0.884 0 1.6 0.716 1.6 1.6s-0.716 1.6-1.6 1.6h-31.999c-0.884 0-1.6-0.716-1.6-1.6s0.716-1.6 1.6-1.6z"></path>
</symbol>
<symbol id="icon-logo" viewBox="0 0 120 32">
<path fill="#2e2f53" style="fill: var(--color2, #2e2f53)" d="M2.093 0c-1.156 0-2.093 0.928-2.093 2.072v19.113c0 1.144 0.937 2.072 2.093 2.072h19.247c1.156 0 2.093-0.928 2.093-2.072v-19.113c0-1.144-0.937-2.072-2.093-2.072h-19.247zM5.039 18.796c-0.289 0-0.523-0.232-0.523-0.518v-13.764c0-0.286 0.234-0.518 0.523-0.518h13.376c0.289 0 0.523 0.232 0.523 0.518v13.764c0 0.286-0.234 0.518-0.523 0.518h-3.896c-0.289 0-0.523-0.232-0.523-0.518v-9.895c0-0.286-0.234-0.518-0.523-0.518h-3.491c-0.289 0-0.523 0.232-0.523 0.518v9.895c0 0.286-0.234 0.518-0.523 0.518h-3.896z"></path>
<path fill="#2e2f53" style="fill: var(--color2, #2e2f53)" d="M38.015 18.612c0.078 0.2 0.272 0.332 0.488 0.332h4.039c0.377 0 0.63-0.383 0.48-0.725l-6.062-13.764c-0.083-0.189-0.272-0.311-0.48-0.311h-4.257c-0.208 0-0.396 0.122-0.48 0.311l-6.062 13.764c-0.151 0.342 0.103 0.725 0.48 0.725h3.954c0.216 0 0.411-0.132 0.488-0.332l0.743-1.915c0.078-0.2 0.272-0.332 0.488-0.332h4.948c0.217 0 0.411 0.132 0.488 0.332l0.743 1.915zM33.623 12.77c-0.367 0-0.62-0.365-0.488-0.704l0.686-1.763c0.172-0.442 0.804-0.442 0.976 0l0.686 1.763c0.132 0.339-0.121 0.704-0.488 0.704h-1.372zM51.897 4.144h-6.656c-0.289 0-0.523 0.232-0.523 0.518v13.764c0 0.286 0.234 0.518 0.523 0.518h3.981c0.289 0 0.523-0.232 0.523-0.518v-2.601c0-0.286 0.234-0.518 0.523-0.518h1.628c4.154 0 6.796-2.157 6.796-5.582s-2.642-5.582-6.796-5.582zM51.578 11.459h-1.309c-0.289 0-0.523-0.232-0.523-0.518v-2.431c0-0.286 0.234-0.518 0.523-0.518h1.309c1.384 0 2.045 0.655 2.045 1.734s-0.66 1.734-2.045 1.734zM72.58 4.662c0-0.286-0.234-0.518-0.523-0.518h-12.63c-0.289 0-0.523 0.232-0.523 0.518v2.833c0 0.286 0.234 0.518 0.523 0.518h3.321c0.289 0 0.523 0.232 0.523 0.518v9.895c0 0.286 0.234 0.518 0.523 0.518h3.896c0.289 0 0.523-0.232 0.523-0.518v-9.895c0-0.286 0.234-0.518 0.523-0.518h3.321c0.289 0 0.523-0.232 0.523-0.518v-2.833zM84.433 4.144c-0.289 0-0.523 0.232-0.523 0.518v4.207c0 0.286-0.234 0.518-0.523 0.518h-3.598c-0.289 0-0.523-0.232-0.523-0.518v-4.207c0-0.286-0.234-0.518-0.523-0.518h-3.981c-0.289 0-0.523 0.232-0.523 0.518v13.764c0 0.286 0.234 0.518 0.523 0.518h3.981c0.289 0 0.523-0.232 0.523-0.518v-4.419c0-0.286 0.234-0.518 0.523-0.518h3.598c0.289 0 0.523 0.232 0.523 0.518v4.419c0 0.286 0.234 0.518 0.523 0.518h3.981c0.289 0 0.523-0.232 0.523-0.518v-13.764c0-0.286-0.234-0.518-0.523-0.518h-3.981zM97.054 15.181c-0.29 0-0.523-0.232-0.523-0.518v-0.909c0-0.286 0.234-0.518 0.523-0.518h5.258c0.29 0 0.523-0.232 0.523-0.518v-2.558c0-0.286-0.234-0.518-0.523-0.518h-5.258c-0.29 0-0.523-0.232-0.523-0.518v-0.698c0-0.286 0.234-0.518 0.523-0.518h6.133c0.289 0 0.523-0.232 0.523-0.518v-2.727c0-0.286-0.234-0.518-0.523-0.518h-11.075c-0.29 0-0.523 0.232-0.523 0.518v13.764c0 0.286 0.234 0.518 0.523 0.518h11.352c0.289 0 0.523-0.232 0.523-0.518v-2.727c0-0.286-0.234-0.518-0.523-0.518h-6.41zM113.205 4.144h-6.656c-0.289 0-0.523 0.232-0.523 0.518v13.764c0 0.286 0.234 0.518 0.523 0.518h3.981c0.289 0 0.523-0.232 0.523-0.518v-2.601c0-0.286 0.234-0.518 0.523-0.518h1.629c4.154 0 6.795-2.157 6.795-5.582s-2.642-5.582-6.795-5.582zM112.885 11.459h-1.309c-0.289 0-0.523-0.232-0.523-0.518v-2.431c0-0.286 0.234-0.518 0.523-0.518h1.309c1.385 0 2.046 0.655 2.046 1.734s-0.661 1.734-2.046 1.734z"></path>
<path fill="#2e2f53" style="fill: var(--color2, #2e2f53)" d="M2.187 31.66c-0.373 0-0.712-0.079-1.015-0.238-0.3-0.162-0.537-0.385-0.712-0.668-0.171-0.287-0.256-0.61-0.256-0.969s0.085-0.68 0.256-0.963c0.174-0.287 0.412-0.509 0.712-0.668 0.303-0.162 0.644-0.243 1.020-0.243 0.317 0 0.603 0.055 0.858 0.166 0.258 0.11 0.474 0.269 0.649 0.477l-0.544 0.497c-0.248-0.283-0.555-0.425-0.921-0.425-0.227 0-0.429 0.050-0.607 0.15-0.178 0.097-0.317 0.233-0.419 0.409-0.098 0.176-0.147 0.376-0.147 0.601s0.049 0.425 0.147 0.601c0.101 0.176 0.241 0.314 0.419 0.414 0.178 0.097 0.38 0.145 0.607 0.145 0.366 0 0.673-0.143 0.921-0.43l0.544 0.497c-0.174 0.211-0.391 0.371-0.649 0.482s-0.546 0.166-0.863 0.166zM11.058 28.656h-1.172v2.942h-0.837v-2.942h-1.167v-0.684h3.176v0.684zM17.178 27.972c0.324 0 0.605 0.053 0.842 0.161 0.241 0.107 0.426 0.259 0.555 0.456s0.194 0.43 0.194 0.699c0 0.266-0.064 0.499-0.194 0.699-0.129 0.197-0.314 0.349-0.555 0.456-0.237 0.104-0.518 0.155-0.842 0.155h-0.738v1h-0.848v-3.626h1.585zM17.131 29.915c0.255 0 0.448-0.054 0.581-0.161 0.133-0.11 0.199-0.266 0.199-0.466 0-0.204-0.066-0.359-0.199-0.466-0.133-0.11-0.326-0.166-0.581-0.166h-0.691v1.259h0.691zM25.627 30.821h-1.7l-0.324 0.777h-0.869l1.632-3.626h0.837l1.638 3.626h-0.889l-0.324-0.777zM25.36 30.184l-0.581-1.388-0.581 1.388h1.162zM31.799 27.972l0.759 1.098 0.759-1.098h0.994l-1.219 1.735 1.318 1.891h-0.999l-0.853-1.202-0.842 1.202h-0.978l1.308-1.854-1.224-1.772h0.978zM40.533 31.66c-0.38 0-0.724-0.081-1.031-0.243-0.303-0.162-0.542-0.385-0.717-0.668-0.171-0.287-0.256-0.608-0.256-0.964s0.085-0.675 0.256-0.958c0.174-0.287 0.413-0.511 0.717-0.673 0.307-0.162 0.65-0.243 1.031-0.243s0.722 0.081 1.026 0.243c0.303 0.162 0.542 0.387 0.717 0.673 0.174 0.283 0.262 0.603 0.262 0.958s-0.087 0.677-0.262 0.964c-0.174 0.283-0.413 0.506-0.717 0.668s-0.645 0.243-1.026 0.243zM40.533 30.945c0.216 0 0.412-0.048 0.586-0.145 0.174-0.1 0.31-0.238 0.408-0.414 0.101-0.176 0.152-0.376 0.152-0.601s-0.051-0.425-0.152-0.601c-0.098-0.176-0.234-0.312-0.408-0.409-0.174-0.1-0.37-0.15-0.586-0.15s-0.412 0.050-0.586 0.15c-0.174 0.097-0.312 0.233-0.413 0.409-0.098 0.176-0.146 0.376-0.146 0.601s0.049 0.425 0.146 0.601c0.101 0.176 0.239 0.314 0.413 0.414 0.174 0.097 0.37 0.145 0.586 0.145zM49.73 29.707c0.223 0.066 0.394 0.173 0.513 0.321s0.178 0.332 0.178 0.549c0 0.321-0.124 0.572-0.372 0.751-0.244 0.18-0.595 0.269-1.052 0.269h-1.805v-3.626h1.706c0.426 0 0.757 0.081 0.994 0.243s0.356 0.394 0.356 0.694c0 0.18-0.045 0.338-0.136 0.477-0.091 0.135-0.218 0.242-0.382 0.321zM48.035 29.474h0.79c0.185 0 0.324-0.036 0.419-0.109 0.094-0.076 0.141-0.186 0.141-0.332 0-0.142-0.049-0.25-0.146-0.326-0.094-0.076-0.232-0.114-0.413-0.114h-0.79v0.881zM48.966 30.977c0.398 0 0.596-0.155 0.596-0.466 0-0.3-0.199-0.451-0.596-0.451h-0.931v0.917h0.931zM56.841 31.66c-0.38 0-0.724-0.081-1.031-0.243-0.304-0.162-0.543-0.385-0.717-0.668-0.171-0.287-0.256-0.608-0.256-0.964s0.085-0.675 0.256-0.958c0.174-0.287 0.413-0.511 0.717-0.673 0.307-0.162 0.65-0.243 1.031-0.243s0.722 0.081 1.025 0.243c0.304 0.162 0.543 0.387 0.717 0.673 0.174 0.283 0.262 0.603 0.262 0.958s-0.087 0.677-0.262 0.964c-0.174 0.283-0.413 0.506-0.717 0.668s-0.645 0.243-1.025 0.243zM56.841 30.945c0.216 0 0.412-0.048 0.586-0.145 0.174-0.1 0.31-0.238 0.408-0.414 0.101-0.176 0.152-0.376 0.152-0.601s-0.051-0.425-0.152-0.601c-0.098-0.176-0.234-0.312-0.408-0.409-0.174-0.1-0.37-0.15-0.586-0.15s-0.412 0.050-0.586 0.15c-0.174 0.097-0.312 0.233-0.413 0.409-0.098 0.176-0.146 0.376-0.146 0.601s0.049 0.425 0.146 0.601c0.101 0.176 0.239 0.314 0.413 0.414 0.174 0.097 0.37 0.145 0.586 0.145zM63.501 27.972h0.842v2.362l1.748-2.362h0.795v3.626h-0.837v-2.357l-1.748 2.357h-0.8v-3.626zM65.19 27.739c-0.67 0-1.008-0.264-1.015-0.793h0.581c0.007 0.252 0.152 0.378 0.434 0.378 0.14 0 0.246-0.031 0.319-0.093 0.073-0.066 0.111-0.161 0.115-0.285h0.581c-0.004 0.259-0.089 0.456-0.256 0.591s-0.42 0.202-0.759 0.202zM79.016 31.66c-0.374 0-0.712-0.079-1.015-0.238-0.3-0.162-0.537-0.385-0.712-0.668-0.171-0.287-0.256-0.61-0.256-0.969s0.085-0.68 0.256-0.963c0.174-0.287 0.411-0.509 0.712-0.668 0.304-0.162 0.644-0.243 1.020-0.243 0.317 0 0.603 0.055 0.858 0.166 0.258 0.11 0.474 0.269 0.649 0.477l-0.544 0.497c-0.248-0.283-0.555-0.425-0.921-0.425-0.227 0-0.429 0.050-0.607 0.15-0.178 0.097-0.318 0.233-0.419 0.409-0.098 0.176-0.146 0.376-0.146 0.601s0.049 0.425 0.146 0.601c0.101 0.176 0.241 0.314 0.419 0.414 0.178 0.097 0.38 0.145 0.607 0.145 0.366 0 0.673-0.143 0.921-0.43l0.544 0.497c-0.175 0.211-0.391 0.371-0.649 0.482s-0.546 0.166-0.863 0.166zM87.919 30.925v0.673h-2.836v-3.626h2.768v0.673h-1.926v0.787h1.701v0.653h-1.701v0.839h1.994zM94.191 27.972c0.325 0 0.606 0.053 0.842 0.161 0.241 0.107 0.426 0.259 0.555 0.456s0.194 0.43 0.194 0.699c0 0.266-0.065 0.499-0.194 0.699-0.129 0.197-0.314 0.349-0.555 0.456-0.237 0.104-0.518 0.155-0.842 0.155h-0.738v1h-0.847v-3.626h1.585zM94.145 29.915c0.254 0 0.448-0.054 0.581-0.161 0.133-0.11 0.198-0.266 0.198-0.466 0-0.204-0.066-0.359-0.198-0.466-0.133-0.11-0.326-0.166-0.581-0.166h-0.691v1.259h0.691zM102.882 29.707c0.223 0.066 0.394 0.173 0.513 0.321s0.178 0.332 0.178 0.549c0 0.321-0.124 0.572-0.371 0.751-0.245 0.18-0.595 0.269-1.052 0.269h-1.805v-3.626h1.706c0.426 0 0.757 0.081 0.994 0.243s0.355 0.394 0.355 0.694c0 0.18-0.045 0.338-0.136 0.477-0.090 0.135-0.218 0.242-0.382 0.321zM101.186 29.474h0.79c0.184 0 0.324-0.036 0.418-0.109 0.094-0.076 0.141-0.186 0.141-0.332 0-0.142-0.049-0.25-0.146-0.326-0.094-0.076-0.232-0.114-0.413-0.114h-0.79v0.881zM102.118 30.977c0.398 0 0.597-0.155 0.597-0.466 0-0.3-0.199-0.451-0.597-0.451h-0.931v0.917h0.931zM108.245 27.972h0.842v2.362l1.748-2.362h0.795v3.626h-0.838v-2.357l-1.747 2.357h-0.801v-3.626zM118.277 31.66c-0.374 0-0.712-0.079-1.015-0.238-0.3-0.162-0.538-0.385-0.712-0.668-0.17-0.287-0.256-0.61-0.256-0.969s0.086-0.68 0.256-0.963c0.174-0.287 0.412-0.509 0.712-0.668 0.303-0.162 0.643-0.243 1.020-0.243 0.318 0 0.603 0.055 0.858 0.166 0.258 0.11 0.474 0.269 0.649 0.477l-0.544 0.497c-0.248-0.283-0.555-0.425-0.921-0.425-0.227 0-0.43 0.050-0.607 0.15-0.178 0.097-0.318 0.233-0.418 0.409-0.098 0.176-0.146 0.376-0.146 0.601s0.048 0.425 0.146 0.601c0.101 0.176 0.24 0.314 0.418 0.414 0.178 0.097 0.38 0.145 0.607 0.145 0.366 0 0.673-0.143 0.921-0.43l0.544 0.497c-0.174 0.211-0.391 0.371-0.649 0.482s-0.546 0.166-0.863 0.166z"></path>
</symbol>
<symbol id="icon-footer-vk" viewBox="0 0 20 20"><path fill-rule="evenodd" clip-rule="evenodd" d="M3 0C1.34315 0 0 1.34315 0 3V17C0 18.6569 1.34315 20 3 20H17C18.6569 20 20 18.6569 20 17V3C20 1.34315 18.6569 0 17 0H3ZM17.7659 6.53727C17.6301 6.93335 17.4598 7.43007 16.3044 9.00587C16.0201 9.39311 15.6498 10.0851 15.5254 10.4169C15.3733 10.7979 15.5203 11.1128 15.6696 11.312C15.792 11.4692 15.9711 11.6602 16.1763 11.8789C16.6619 12.3965 17.2932 13.0695 17.6631 13.8175L18 14.5H15.6375C14.7075 14.5 14.3104 14.0782 13.7341 13.3629C13.1348 12.6168 12.8722 12.3502 11.9634 12.3502C11.3483 12.3502 11.0015 13.3526 10.9517 14.0491L10.9187 14.5L10.4578 14.4866C6.91565 14.2855 4.32678 11.8677 2.25684 6.64746L2 6H4.80701C4.81116 6.00793 4.82591 6.04469 4.85027 6.1054C5.11649 6.7689 6.53025 10.2924 7.80139 10.2924C8.66687 10.2924 8.71436 8.13828 8.59375 7.25299C8.53077 6.80711 8.4368 6.6938 8.31083 6.54188C8.22316 6.43616 8.11999 6.31174 8.00098 6.04353L8.73657 6.01894C9.55884 5.98057 10.2931 6.05362 10.6978 6.10527C10.894 6.13023 11.0576 6.2735 11.0908 6.46989C11.1135 6.6043 11.1216 6.87656 11.0743 7.65462C11.0242 8.49405 10.9161 10.4319 11.7301 10.2432C12.5568 10.0518 13.9236 8.17837 14.533 6.92981C14.6018 6.78864 14.8273 6 14.8273 6H18C17.877 6.21316 17.8247 6.36578 17.7659 6.53727Z" fill="white"/>
</symbol>
<symbol id="icon-footer-inst" viewBox="0 0 20 20">
<path d="M17.0703 0H2.92969C1.31439 0 0 1.31439 0 2.92969V17.0703C0 18.6856 1.31439 20 2.92969 20H17.0703C18.6856 20 20 18.6856 20 17.0703V2.92969C20 1.31439 18.6856 0 17.0703 0ZM10.0391 15.2344C7.1312 15.2344 4.76562 12.8688 4.76562 9.96094C4.76562 7.05307 7.1312 4.6875 10.0391 4.6875C12.9469 4.6875 15.3125 7.05307 15.3125 9.96094C15.3125 12.8688 12.9469 15.2344 10.0391 15.2344ZM15.8984 5.85938C14.9292 5.85938 14.1406 5.0708 14.1406 4.10156C14.1406 3.13232 14.9292 2.34375 15.8984 2.34375C16.8677 2.34375 17.6562 3.13232 17.6562 4.10156C17.6562 5.0708 16.8677 5.85938 15.8984 5.85938Z" fill="white"/>
<path d="M15.8984 3.51562C15.5751 3.51562 15.3125 3.77823 15.3125 4.10156C15.3125 4.4249 15.5751 4.6875 15.8984 4.6875C16.2218 4.6875 16.4844 4.4249 16.4844 4.10156C16.4844 3.77823 16.2218 3.51562 15.8984 3.51562Z" fill="white"/>
<path d="M10.0391 5.85938C7.77771 5.85938 5.9375 7.69958 5.9375 9.96094C5.9375 12.2223 7.77771 14.0625 10.0391 14.0625C12.3004 14.0625 14.1406 12.2223 14.1406 9.96094C14.1406 7.69958 12.3004 5.85938 10.0391 5.85938Z" fill="white"/>
</symbol>
<symbol id="icon-footer-facebook" viewBox="0 0 20 20">
<path d="M17.0703 0H2.92969C1.31439 0 0 1.31439 0 2.92969V17.0703C0 18.6856 1.31439 20 2.92969 20H8.82812V12.9297H6.48438V9.41406H8.82812V7.03125C8.82812 5.09262 10.4051 3.51562 12.3438 3.51562H15.8984V7.03125H12.3438V9.41406H15.8984L15.3125 12.9297H12.3438V20H17.0703C18.6856 20 20 18.6856 20 17.0703V2.92969C20 1.31439 18.6856 0 17.0703 0Z" fill="white"/>
</symbol>
</defs>
</svg>
